<?xml version="1.0" encoding="UTF-8"?>
<svg width="24px" height="24px" viewBox="0 0 24 24" version="1.1" xmlns="http://www.w3.org/2000/svg" xmlns:xlink="http://www.w3.org/1999/xlink">
    <!-- Generator: Sketch 48.2 (47327) - http://www.bohemiancoding.com/sketch -->
    <title>myaccount</title>
    <desc>Created with Sketch.</desc>
    <defs></defs>
    <g id="Header-web" stroke="none" strokeWidth="1" fill="none" fill-rule="evenodd" transform="translate(-1059.000000, -13.000000)">
        <g id="Group-9" transform="translate(1059.000000, 13.000000)">
            <rect id="myaccount" x="0" y="0" width="24" height="24"></rect>
            <g id="Group-5" transform="translate(3.000000, 2.000000)" fill="#24272C" fill-rule="nonzero">
                <path d="M8.65922619,12.9331754 C6.77346408,12.9331754 5.00639488,12.2235358 3.66399543,10.9994869 L1.29318413,16.3595821 L8.62812281,20.2010837 L16.0240854,16.3569079 L13.654457,10.9994869 C12.3120575,12.2235358 10.5449883,12.9331754 8.65922619,12.9331754 Z M17.3184524,16.8111516 L8.62636752,21.3290087 L0,16.8111516 L3.38121448,9.16666667 C4.53948818,10.8383313 6.47149992,11.9331754 8.65922619,11.9331754 C10.8469525,11.9331754 12.7789642,10.8383313 13.9372379,9.16666667 L17.3184524,16.8111516 Z" id="Combined-Shape"></path>
                <path d="M8.47916667,10.125 C5.54515393,10.125 3.16666667,7.74651273 3.16666667,4.8125 C3.16666667,1.87848727 5.54515393,-0.5 8.47916667,-0.5 C11.4131794,-0.5 13.7916667,1.87848727 13.7916667,4.8125 C13.7916667,7.74651273 11.4131794,10.125 8.47916667,10.125 Z M8.47916667,9.125 C10.8608947,9.125 12.7916667,7.19422798 12.7916667,4.8125 C12.7916667,2.43077202 10.8608947,0.5 8.47916667,0.5 C6.09743868,0.5 4.16666667,2.43077202 4.16666667,4.8125 C4.16666667,7.19422798 6.09743868,9.125 8.47916667,9.125 Z" id="Oval"></path>
            </g>
        </g>
    </g>
</svg>